<svg width="243" height="58" viewBox="0 0 243 58" fill="none" xmlns="http://www.w3.org/2000/svg">
<path d="M24.5 4.5C23.4 18.8 19.1 29.6 10.2 39.2H24.5V4.5Z" fill="#041E3F"/>
<path opacity="0.82" d="M27.6 9.5V39.2H41.7C35.2 31 30.8 21.2 27.6 9.5Z" fill="#041E3F"/>
<path d="M5.40002 42.2H44.5C39.7 48.9 32.8 52.2999 23.7 52.2999C16.5 52.2999 10.4 50.0999 5.40002 45.7999H30.2C22.5 49.3999 14.2 49.3999 5.40002 45.7999V42.2Z" fill="#041E3F"/>
<path d="M20.9 5.9L23.5 2V41.2H20.9V5.9Z" fill="#041E3F"/>
<path d="M60.2017 38.5V20.3182H66.3452C67.7715 20.3182 68.9375 20.5756 69.843 21.0906C70.7545 21.5996 71.4292 22.2891 71.8672 23.1591C72.3052 24.0291 72.5241 24.9998 72.5241 26.071C72.5241 27.1423 72.3052 28.1159 71.8672 28.9918C71.4351 29.8678 70.7663 30.5662 69.8608 31.087C68.9553 31.6019 67.7952 31.8594 66.3807 31.8594H61.9773V29.9062H66.3097C67.2862 29.9062 68.0704 29.7376 68.6623 29.4002C69.2541 29.0629 69.6832 28.6071 69.9496 28.033C70.2218 27.453 70.358 26.799 70.358 26.071C70.358 25.343 70.2218 24.692 69.9496 24.1179C69.6832 23.5438 69.2512 23.094 68.6534 22.7685C68.0556 22.437 67.2625 22.2713 66.2741 22.2713H62.4034V38.5H60.2017ZM75.7868 38.5V24.8636H77.8109V26.9233H77.9529C78.2015 26.2486 78.6513 25.7011 79.3024 25.2809C79.9534 24.8607 80.6873 24.6506 81.5041 24.6506C81.658 24.6506 81.8503 24.6535 82.0811 24.6594C82.312 24.6654 82.4866 24.6742 82.6049 24.6861V26.8168C82.5339 26.799 82.3712 26.7724 82.1167 26.7369C81.8681 26.6954 81.6047 26.6747 81.3265 26.6747C80.6636 26.6747 80.0718 26.8138 79.551 27.092C79.036 27.3642 78.6277 27.743 78.3258 28.2283C78.0299 28.7077 77.8819 29.2552 77.8819 29.8707V38.5H75.7868ZM90.2132 38.7841C88.9822 38.7841 87.902 38.4911 86.9728 37.9052C86.0495 37.3192 85.3275 36.4995 84.8066 35.446C84.2917 34.3925 84.0343 33.1615 84.0343 31.7528C84.0343 30.3324 84.2917 29.0924 84.8066 28.033C85.3275 26.9736 86.0495 26.1509 86.9728 25.565C87.902 24.979 88.9822 24.6861 90.2132 24.6861C91.4443 24.6861 92.5215 24.979 93.4448 25.565C94.374 26.1509 95.0961 26.9736 95.611 28.033C96.1318 29.0924 96.3922 30.3324 96.3922 31.7528C96.3922 33.1615 96.1318 34.3925 95.611 35.446C95.0961 36.4995 94.374 37.3192 93.4448 37.9052C92.5215 38.4911 91.4443 38.7841 90.2132 38.7841ZM90.2132 36.902C91.1484 36.902 91.9178 36.6623 92.5215 36.1829C93.1252 35.7035 93.572 35.0732 93.862 34.2919C94.152 33.5107 94.2971 32.6643 94.2971 31.7528C94.2971 30.8414 94.152 29.9921 93.862 29.2049C93.572 28.4177 93.1252 27.7815 92.5215 27.2962C91.9178 26.8108 91.1484 26.5682 90.2132 26.5682C89.2781 26.5682 88.5087 26.8108 87.905 27.2962C87.3013 27.7815 86.8545 28.4177 86.5645 29.2049C86.2744 29.9921 86.1294 30.8414 86.1294 31.7528C86.1294 32.6643 86.2744 33.5107 86.5645 34.2919C86.8545 35.0732 87.3013 35.7035 87.905 36.1829C88.5087 36.6623 89.2781 36.902 90.2132 36.902ZM105.095 43.8977C104.083 43.8977 103.213 43.7675 102.485 43.5071C101.757 43.2526 101.15 42.9152 100.665 42.495C100.185 42.0807 99.8035 41.6368 99.5194 41.1634L101.188 39.9915C101.378 40.2401 101.618 40.5241 101.908 40.8438C102.198 41.1693 102.594 41.4504 103.097 41.6871C103.606 41.9298 104.272 42.0511 105.095 42.0511C106.196 42.0511 107.104 41.7848 107.82 41.2521C108.536 40.7195 108.894 39.8849 108.894 38.7486V35.9787H108.717C108.563 36.2273 108.344 36.535 108.06 36.902C107.782 37.263 107.379 37.5856 106.853 37.8697C106.332 38.1478 105.627 38.2869 104.74 38.2869C103.639 38.2869 102.65 38.0265 101.774 37.5057C100.904 36.9848 100.215 36.2273 99.7059 35.233C99.2028 34.2386 98.9513 33.0312 98.9513 31.6108C98.9513 30.214 99.1969 28.9978 99.6881 27.962C100.179 26.9203 100.863 26.1154 101.739 25.5472C102.615 24.9731 103.627 24.6861 104.775 24.6861C105.663 24.6861 106.367 24.834 106.888 25.13C107.415 25.42 107.817 25.7514 108.095 26.1243C108.38 26.4912 108.599 26.7931 108.752 27.0298H108.965V24.8636H110.99V38.8906C110.99 40.0625 110.723 41.0154 110.191 41.7493C109.664 42.4891 108.954 43.0307 108.06 43.3739C107.172 43.7231 106.184 43.8977 105.095 43.8977ZM105.024 36.4048C105.864 36.4048 106.574 36.2125 107.154 35.8278C107.734 35.4431 108.175 34.8897 108.477 34.1676C108.779 33.4455 108.93 32.5814 108.93 31.5753C108.93 30.5928 108.782 29.7257 108.486 28.9741C108.19 28.2224 107.752 27.6335 107.172 27.2074C106.592 26.7812 105.876 26.5682 105.024 26.5682C104.136 26.5682 103.396 26.7931 102.804 27.2429C102.218 27.6927 101.777 28.2964 101.481 29.054C101.191 29.8116 101.046 30.652 101.046 31.5753C101.046 32.5223 101.194 33.3597 101.49 34.0877C101.792 34.8098 102.236 35.378 102.822 35.7923C103.414 36.2006 104.148 36.4048 105.024 36.4048ZM123.419 32.9247V24.8636H125.514V38.5H123.419V36.1918H123.277C122.957 36.8842 122.46 37.4731 121.785 37.9585C121.11 38.4379 120.258 38.6776 119.228 38.6776C118.376 38.6776 117.618 38.4911 116.956 38.1183C116.293 37.7395 115.772 37.1713 115.393 36.4137C115.014 35.6502 114.825 34.6884 114.825 33.5284V24.8636H116.92V33.3864C116.92 34.3807 117.198 35.1738 117.755 35.7656C118.317 36.3575 119.033 36.6534 119.903 36.6534C120.424 36.6534 120.954 36.5202 121.492 36.2539C122.037 35.9876 122.492 35.5792 122.859 35.0288C123.232 34.4783 123.419 33.777 123.419 32.9247ZM131.446 20.3182V38.5H129.351V20.3182H131.446ZM137.237 33.5284L137.201 30.9361H137.628L143.593 24.8636H146.186L139.829 31.2912H139.652L137.237 33.5284ZM135.284 38.5V20.3182H137.379V38.5H135.284ZM143.949 38.5L138.622 31.7528L140.113 30.2969L146.612 38.5H143.949ZM148.882 38.5V24.8636H150.978V38.5H148.882ZM149.948 22.5909C149.539 22.5909 149.187 22.4518 148.891 22.1737C148.601 21.8955 148.456 21.5611 148.456 21.1705C148.456 20.7798 148.601 20.4454 148.891 20.1673C149.187 19.8891 149.539 19.75 149.948 19.75C150.356 19.75 150.705 19.8891 150.995 20.1673C151.291 20.4454 151.439 20.7798 151.439 21.1705C151.439 21.5611 151.291 21.8955 150.995 22.1737C150.705 22.4518 150.356 22.5909 149.948 22.5909ZM155.099 38.5V20.3182H161.243C162.669 20.3182 163.835 20.5756 164.741 21.0906C165.652 21.5996 166.327 22.2891 166.765 23.1591C167.203 24.0291 167.422 24.9998 167.422 26.071C167.422 27.1423 167.203 28.1159 166.765 28.9918C166.333 29.8678 165.664 30.5662 164.758 31.087C163.853 31.6019 162.693 31.8594 161.278 31.8594H156.875V29.9062H161.207C162.184 29.9062 162.968 29.7376 163.56 29.4002C164.152 29.0629 164.581 28.6071 164.847 28.033C165.119 27.453 165.255 26.799 165.255 26.071C165.255 25.343 165.119 24.692 164.847 24.1179C164.581 23.5438 164.149 23.094 163.551 22.7685C162.953 22.437 162.16 22.2713 161.172 22.2713H157.301V38.5H155.099ZM176.078 38.7841C174.846 38.7841 173.766 38.4911 172.837 37.9052C171.914 37.3192 171.192 36.4995 170.671 35.446C170.156 34.3925 169.899 33.1615 169.899 31.7528C169.899 30.3324 170.156 29.0924 170.671 28.033C171.192 26.9736 171.914 26.1509 172.837 25.565C173.766 24.979 174.846 24.6861 176.078 24.6861C177.309 24.6861 178.386 24.979 179.309 25.565C180.238 26.1509 180.96 26.9736 181.475 28.033C181.996 29.0924 182.256 30.3324 182.256 31.7528C182.256 33.1615 181.996 34.3925 181.475 35.446C180.96 36.4995 180.238 37.3192 179.309 37.9052C178.386 38.4911 177.309 38.7841 176.078 38.7841ZM176.078 36.902C177.013 36.902 177.782 36.6623 178.386 36.1829C178.989 35.7035 179.436 35.0732 179.726 34.2919C180.016 33.5107 180.161 32.6643 180.161 31.7528C180.161 30.8414 180.016 29.9921 179.726 29.2049C179.436 28.4177 178.989 27.7815 178.386 27.2962C177.782 26.8108 177.013 26.5682 176.078 26.5682C175.142 26.5682 174.373 26.8108 173.769 27.2962C173.166 27.7815 172.719 28.4177 172.429 29.2049C172.139 29.9921 171.994 30.8414 171.994 31.7528C171.994 32.6643 172.139 33.5107 172.429 34.2919C172.719 35.0732 173.166 35.7035 173.769 36.1829C174.373 36.6623 175.142 36.902 176.078 36.902ZM185.215 20.3182L190.613 35.6236H190.826L196.224 20.3182H198.532L191.856 38.5H189.583L182.907 20.3182H185.215ZM201.08 38.5V24.8636H203.175V38.5H201.08ZM202.145 22.5909C201.737 22.5909 201.385 22.4518 201.089 22.1737C200.799 21.8955 200.654 21.5611 200.654 21.1705C200.654 20.7798 200.799 20.4454 201.089 20.1673C201.385 19.8891 201.737 19.75 202.145 19.75C202.553 19.75 202.903 19.8891 203.193 20.1673C203.489 20.4454 203.637 20.7798 203.637 21.1705C203.637 21.5611 203.489 21.8955 203.193 22.1737C202.903 22.4518 202.553 22.5909 202.145 22.5909ZM206.622 38.5V36.902L214.363 26.9588V26.8168H206.87V24.8636H217.062V26.5327L209.534 36.4048V36.5469H217.311V38.5H206.622ZM229.131 32.9247V24.8636H231.227V38.5H229.131V36.1918H228.989C228.67 36.8842 228.173 37.4731 227.498 37.9585C226.823 38.4379 225.971 38.6776 224.941 38.6776C224.089 38.6776 223.331 38.4911 222.668 38.1183C222.006 37.7395 221.485 37.1713 221.106 36.4137C220.727 35.6502 220.538 34.6884 220.538 33.5284V24.8636H222.633V33.3864C222.633 34.3807 222.911 35.1738 223.467 35.7656C224.03 36.3575 224.746 36.6534 225.616 36.6534C226.137 36.6534 226.666 36.5202 227.205 36.2539C227.749 35.9876 228.205 35.5792 228.572 35.0288C228.945 34.4783 229.131 33.777 229.131 32.9247Z" fill="#041E3F"/>
</svg>
