<svg xmlns="http://www.w3.org/2000/svg">
<defs>
<clipPath id="clip0_2093_7">
<rect width="13" height="13" fill="white"/>
</clipPath>
</defs>
<symbol id="anchor" viewBox="0 0 28 28">
<path d="M14 3V20" stroke="#FAE3A8" stroke-width="1.8" stroke-linecap="round"/>
<path d="M10.5 7.5C10.5 5.57 12.07 4 14 4C15.93 4 17.5 5.57 17.5 7.5C17.5 9.43 15.93 11 14 11C12.07 11 10.5 9.43 10.5 7.5Z" stroke="#FAE3A8" stroke-width="1.8"/>
<path d="M8 15H4.5C4.5 20.25 8.75 24.5 14 24.5C19.25 24.5 23.5 20.25 23.5 15H20" stroke="#FAE3A8" stroke-width="1.8" stroke-linecap="round" stroke-linejoin="round"/>
<path d="M4.5 15L7 12.5" stroke="#FAE3A8" stroke-width="1.8" stroke-linecap="round"/>
<path d="M23.5 15L21 12.5" stroke="#FAE3A8" stroke-width="1.8" stroke-linecap="round"/>
</symbol>
<symbol id="arrow1" viewBox="0 0 21 13">
<path d="M20.601 6.85352C20.7604 6.69412 20.8499 6.47794 20.8499 6.25252C20.8499 6.02711 20.7604 5.81093 20.601 5.65152L15.191 0.241524C15.0308 0.0853088 14.8156 -0.00146685 14.5918 1.87656e-05C14.3681 0.00150438 14.154 0.0911314 13.9959 0.24946C13.8379 0.407788 13.7486 0.622049 13.7475 0.84577C13.7464 1.06949 13.8335 1.28463 13.99 1.44452L18.798 6.25252L13.99 11.0615C13.9096 11.1401 13.8455 11.2339 13.8016 11.3374C13.7576 11.4409 13.7347 11.5521 13.734 11.6646C13.7334 11.777 13.755 11.8885 13.7978 11.9925C13.8405 12.0965 13.9034 12.191 13.983 12.2706C14.0625 12.3501 14.157 12.413 14.261 12.4558C14.365 12.4985 14.4765 12.5202 14.589 12.5195C14.7014 12.5189 14.8126 12.4959 14.9161 12.452C15.0196 12.408 15.1134 12.344 15.192 12.2635L20.601 6.85352ZM0 6.25352V7.10352H20V5.40352H0V6.25352Z" fill="#FAE3A8"/>
</symbol>
<symbol id="arrow2" viewBox="0 0 18 15">
<path d="M1 6.36301C0.734784 6.36301 0.48043 6.46837 0.292893 6.65591C0.105357 6.84344 0 7.0978 0 7.36301C0 7.62823 0.105357 7.88258 0.292893 8.07012C0.48043 8.25766 0.734784 8.36301 1 8.36301V6.36301ZM17.707 8.07001C17.8945 7.88248 17.9998 7.62818 17.9998 7.36301C17.9998 7.09785 17.8945 6.84354 17.707 6.65601L11.343 0.292013C11.2513 0.194335 11.1409 0.116088 11.0183 0.0619185C10.8957 0.00774957 10.7635 -0.0212361 10.6296 -0.0233169C10.4956 -0.0253977 10.3626 -0.000531089 10.2384 0.0498059C10.1142 0.100143 10.0014 0.174923 9.90668 0.269706C9.81196 0.364488 9.73726 0.477339 9.68701 0.601556C9.63676 0.725773 9.61199 0.858821 9.61417 0.992799C9.61634 1.12678 9.64542 1.25895 9.69968 1.38147C9.75393 1.50399 9.83226 1.61436 9.93 1.70601L15.587 7.36301L9.93 13.02C9.74784 13.2086 9.64705 13.4612 9.64933 13.7234C9.6516 13.9856 9.75677 14.2364 9.94218 14.4218C10.1276 14.6072 10.3784 14.7124 10.6406 14.7147C10.9028 14.717 11.1554 14.6162 11.344 14.434L17.707 8.07001ZM1 7.36301V8.36301H17V6.36301H1V7.36301Z" fill="#041E3F"/>
</symbol>
<symbol id="birthday" viewBox="0 0 32 32"><path d="M5 18h22v9H5v-9Zm3-5h16v5H8v-5Z" fill="none" stroke="#12355b" stroke-width="1.8"/><path d="M16 4c3 3 2 6 0 7-2-1-3-4 0-7Zm-8 17h16" fill="none" stroke="#05b9c8" stroke-width="1.8" stroke-linecap="round"/></symbol>
<symbol id="corporate" viewBox="0 0 32 32"><rect x="4" y="10" width="24" height="17" rx="2" fill="none" stroke="#12355b" stroke-width="1.8"/><path d="M11 10V6h10v4M4 17h24m-14-2h4v4h-4z" fill="none" stroke="#05b9c8" stroke-width="1.8" stroke-linejoin="round"/></symbol>
<symbol id="crown" viewBox="0 0 37 47">
<path d="M17 0C15 12 14.8 27 15.5 37L1 35.5C5.5 22 11 10 17 0Z" fill="#B18F54"/>
<path d="M19 6C26 14 32 23 35 32L19.8 31.2C19.2 23 19 15 19 6Z" fill="#D8B06A"/>
<path d="M4 37.5C11 35.8 23.5 35.8 34.5 37.5C32.5 40.3 28.5 42 20 42C11.8 42 6.8 40.6 4 37.5Z" fill="#D8B06A"/>
<path opacity="0.9" d="M0 44C4 42.7 8 42 12 42.8C16 43.6 20 45 24 45C29 45 33 43.7 37 42.5L36 44.5C32.8 46 28.5 47 24 47C19 47 15 45.5 11 45C7 44.5 3.5 45.2 0 46V44Z" fill="#B18F54"/>
<path opacity="0.8" d="M3 40.8C8 39.5 13 39.2 18 40.3C23 41.4 28 41.2 33 39.8" fill="#D8B06A"/>
</symbol>
<symbol id="excursion" viewBox="0 0 32 32"><circle cx="16" cy="16" r="12" fill="none" stroke="#12355b" stroke-width="1.8"/><path d="m20 10-3 8-5 4 3-8 5-4Z" fill="none" stroke="#05b9c8" stroke-width="1.8" stroke-linejoin="round"/></symbol>
<symbol id="kids-event" viewBox="0 0 32 32"><path d="M7 28V4m1 2h16l-4 5 4 5H8" fill="none" stroke="#12355b" stroke-width="1.8" stroke-linecap="round" stroke-linejoin="round"/><path d="M7 22h10" fill="none" stroke="#05b9c8" stroke-width="1.8" stroke-linecap="round"/></symbol>
<symbol id="map" viewBox="0 0 13 13">
<g clip-path="url(#clip0_2093_7)">
<path d="M6.5 8C7.879 8 9 6.879 9 5.5C9 4.121 7.879 3 6.5 3C5.8372 3.00079 5.20178 3.26444 4.73311 3.73311C4.26444 4.20178 4.00079 4.8372 4 5.5C4 6.879 5.121 8 6.5 8ZM6.5 4.25C6.83152 4.25 7.14946 4.3817 7.38388 4.61612C7.6183 4.85054 7.75 5.16848 7.75 5.5C7.75 5.83152 7.6183 6.14946 7.38388 6.38388C7.14946 6.6183 6.83152 6.75 6.5 6.75C6.16848 6.75 5.85054 6.6183 5.61612 6.38388C5.3817 6.14946 5.25 5.83152 5.25 5.5C5.25 5.16848 5.3817 4.85054 5.61612 4.61612C5.85054 4.3817 6.16848 4.25 6.5 4.25Z" fill="#FAE3A8"/>
<path d="M6.10106 12.88C6.21901 12.9593 6.35792 13.0017 6.50006 13.0017C6.6422 13.0017 6.78111 12.9593 6.89906 12.88C7.10806 12.74 12.0191 9.386 11.9991 5.2C12.0001 2.333 9.53406 0 6.50006 0C3.46706 0 1.00006 2.333 1.00006 5.197C0.980061 9.387 5.89206 12.74 6.10106 12.88ZM6.50006 1.3C8.77506 1.3 10.6251 3.05 10.6251 5.203C10.6391 8.088 7.60806 10.678 6.50006 11.528C5.39206 10.678 2.36006 8.087 2.37506 5.2C2.37506 3.05 4.22506 1.3 6.50006 1.3Z" fill="#FAE3A8"/>
</g>

</symbol>
<symbol id="party" viewBox="0 0 32 32"><path d="m8 4 6 3-4 10-6-3L8 4Zm16 0-6 3 4 10 6-3-4-10Z" fill="none" stroke="#12355b" stroke-width="1.8" stroke-linejoin="round"/><path d="M9 17v9m14-9v9M6 27h6m8 0h6" fill="none" stroke="#05b9c8" stroke-width="1.8" stroke-linecap="round"/></symbol>
<symbol id="photoshoot" viewBox="0 0 32 32"><path d="M4 10h6l2-3h8l2 3h6v17H4V10Z" fill="none" stroke="#12355b" stroke-width="1.8" stroke-linejoin="round"/><circle cx="16" cy="18" r="5" fill="none" stroke="#05b9c8" stroke-width="1.8"/></symbol>
<symbol id="romantic-date" viewBox="0 0 32 32"><path d="M16 27S5 20.5 5 12.8C5 8.7 10 6 13.2 9.2L16 12l2.8-2.8C22 6 27 8.7 27 12.8 27 20.5 16 27 16 27Z" fill="none" stroke="#12355b" stroke-width="1.8" stroke-linecap="round" stroke-linejoin="round"/><path d="M7 25c3 1.3 5.5 1.3 8 0" fill="none" stroke="#05b9c8" stroke-width="1.8" stroke-linecap="round"/></symbol>
<symbol id="star" viewBox="0 0 14 14">
<path d="M6.99965 11.2398L3.60648 13.2909C3.45658 13.3866 3.29986 13.4276 3.13634 13.4139C2.97281 13.4002 2.82972 13.3456 2.70708 13.2498C2.58443 13.1541 2.48904 13.0346 2.42091 12.8913C2.35277 12.748 2.33915 12.5872 2.38003 12.4089L3.27942 8.5324L0.274623 5.92756C0.138351 5.8045 0.0533171 5.6642 0.0195216 5.50668C-0.0142739 5.34916 -0.00418974 5.19547 0.049774 5.0456C0.103738 4.89574 0.185501 4.77268 0.295064 4.67641C0.404627 4.58015 0.554526 4.51862 0.744762 4.49182L4.71028 4.14314L6.24334 0.492254C6.31148 0.328169 6.41722 0.205106 6.56058 0.123063C6.70394 0.041021 6.8503 0 6.99965 0C7.14901 0 7.29536 0.041021 7.43872 0.123063C7.58208 0.205106 7.68783 0.328169 7.75596 0.492254L9.28902 4.14314L13.2545 4.49182C13.4453 4.51917 13.5952 4.5807 13.7042 4.67641C13.8133 4.77213 13.895 4.89519 13.9495 5.0456C14.004 5.19601 14.0144 5.34998 13.9806 5.5075C13.9468 5.66502 13.8615 5.80504 13.7247 5.92756L10.7199 8.5324L11.6193 12.4089C11.6602 12.5867 11.6465 12.7475 11.5784 12.8913C11.5103 13.0352 11.4149 13.1547 11.2922 13.2498C11.1696 13.345 11.0265 13.3997 10.863 13.4139C10.6994 13.4281 10.5427 13.3871 10.3928 13.2909L6.99965 11.2398Z" fill="#03ABD0"/>
</symbol>
<symbol id="tg" viewBox="0 0 22 18">
<path d="M1.34988 7.83877C1.34988 7.83877 11.0789 3.88877 14.4499 2.49877C15.7469 1.94177 20.1299 0.15777 20.1299 0.15777C20.1299 0.15777 22.1539 -0.61823 21.9899 1.27177C21.9339 2.05577 21.4849 4.77677 21.0359 7.72577C20.3579 11.9008 19.6239 16.4648 19.6239 16.4648C19.6239 16.4648 19.5179 17.7488 18.5539 17.9668C17.5999 18.1928 16.0239 17.1918 15.7469 16.9648C15.5179 16.8038 11.5269 14.2998 10.0669 13.0718C9.67489 12.7418 9.21688 12.0708 10.1239 11.2958C12.1479 9.45377 14.5639 7.17577 16.0239 5.72177C16.7019 5.05977 17.3789 3.50177 14.5639 5.39177C11.9378 7.18277 9.29296 8.9462 6.62988 10.6818C6.62988 10.6818 5.73288 11.2388 4.04288 10.7378C2.36188 10.2378 0.394885 9.56777 0.394885 9.56777C0.394885 9.56777 -0.960115 8.73477 1.34988 7.83777V7.83877Z" fill="#FAE3A8"/>
</symbol>
<symbol id="verified-icon" viewBox="0 0 24 24">
<path d="M12 2.5L14.15 4.05L16.8 3.95L17.55 6.5L19.75 8L18.85 10.5L19.75 13L17.55 14.5L16.8 17.05L14.15 16.95L12 18.5L9.85 16.95L7.2 17.05L6.45 14.5L4.25 13L5.15 10.5L4.25 8L6.45 6.5L7.2 3.95L9.85 4.05L12 2.5Z" fill="#03ABD0"/>
<path d="M8.40002 10.7L10.65 12.95L15.7 7.90002" stroke="white" stroke-width="1.9" stroke-linecap="round" stroke-linejoin="round"/>
</symbol>
<symbol id="wedding" viewBox="0 0 32 32"><ellipse cx="16" cy="19" rx="8" ry="10" fill="none" stroke="#12355b" stroke-width="1.8"/><path d="m12 8 4-5 4 5-4 4-4-4Z" fill="none" stroke="#05b9c8" stroke-width="1.8" stroke-linejoin="round"/></symbol>
<symbol id="yacht-fleet" viewBox="0 0 32 32"><path d="M16 3v22M15 5 7 22h8m2-16 8 16h-8M4 25c3 2 5 2 8 0 3 2 5 2 8 0 3 2 5 2 8 0" fill="none" stroke="#12355b" stroke-width="1.8" stroke-linecap="round" stroke-linejoin="round"/><path d="M16 7v15" stroke="#05b9c8" stroke-width="1.8"/></symbol>
</svg>