<svg width="18" height="15" viewBox="0 0 18 15" fill="none" xmlns="http://www.w3.org/2000/svg">
<path d="M1 6.36301C0.734784 6.36301 0.48043 6.46837 0.292893 6.65591C0.105357 6.84344 0 7.0978 0 7.36301C0 7.62823 0.105357 7.88258 0.292893 8.07012C0.48043 8.25766 0.734784 8.36301 1 8.36301V6.36301ZM17.707 8.07001C17.8945 7.88248 17.9998 7.62818 17.9998 7.36301C17.9998 7.09785 17.8945 6.84354 17.707 6.65601L11.343 0.292013C11.2513 0.194335 11.1409 0.116088 11.0183 0.0619185C10.8957 0.00774957 10.7635 -0.0212361 10.6296 -0.0233169C10.4956 -0.0253977 10.3626 -0.000531089 10.2384 0.0498059C10.1142 0.100143 10.0014 0.174923 9.90668 0.269706C9.81196 0.364488 9.73726 0.477339 9.68701 0.601556C9.63676 0.725773 9.61199 0.858821 9.61417 0.992799C9.61634 1.12678 9.64542 1.25895 9.69968 1.38147C9.75393 1.50399 9.83226 1.61436 9.93 1.70601L15.587 7.36301L9.93 13.02C9.74784 13.2086 9.64705 13.4612 9.64933 13.7234C9.6516 13.9856 9.75677 14.2364 9.94218 14.4218C10.1276 14.6072 10.3784 14.7124 10.6406 14.7147C10.9028 14.717 11.1554 14.6162 11.344 14.434L17.707 8.07001ZM1 7.36301V8.36301H17V6.36301H1V7.36301Z" fill="#041E3F"/>
</svg>
