<svg width="21" height="13" viewBox="0 0 21 13" fill="none" xmlns="http://www.w3.org/2000/svg">
<path d="M20.601 6.85352C20.7604 6.69412 20.8499 6.47794 20.8499 6.25252C20.8499 6.02711 20.7604 5.81093 20.601 5.65152L15.191 0.241524C15.0308 0.0853088 14.8156 -0.00146685 14.5918 1.87656e-05C14.3681 0.00150438 14.154 0.0911314 13.9959 0.24946C13.8379 0.407788 13.7486 0.622049 13.7475 0.84577C13.7464 1.06949 13.8335 1.28463 13.99 1.44452L18.798 6.25252L13.99 11.0615C13.9096 11.1401 13.8455 11.2339 13.8016 11.3374C13.7576 11.4409 13.7347 11.5521 13.734 11.6646C13.7334 11.777 13.755 11.8885 13.7978 11.9925C13.8405 12.0965 13.9034 12.191 13.983 12.2706C14.0625 12.3501 14.157 12.413 14.261 12.4558C14.365 12.4985 14.4765 12.5202 14.589 12.5195C14.7014 12.5189 14.8126 12.4959 14.9161 12.452C15.0196 12.408 15.1134 12.344 15.192 12.2635L20.601 6.85352ZM0 6.25352V7.10352H20V5.40352H0V6.25352Z" fill="#FAE3A8"/>
</svg>
