<svg width="37" height="47" viewBox="0 0 37 47" fill="none" xmlns="http://www.w3.org/2000/svg">
<path d="M17 0C15 12 14.8 27 15.5 37L1 35.5C5.5 22 11 10 17 0Z" fill="#B18F54"/>
<path d="M19 6C26 14 32 23 35 32L19.8 31.2C19.2 23 19 15 19 6Z" fill="#D8B06A"/>
<path d="M4 37.5C11 35.8 23.5 35.8 34.5 37.5C32.5 40.3 28.5 42 20 42C11.8 42 6.8 40.6 4 37.5Z" fill="#D8B06A"/>
<path opacity="0.9" d="M0 44C4 42.7 8 42 12 42.8C16 43.6 20 45 24 45C29 45 33 43.7 37 42.5L36 44.5C32.8 46 28.5 47 24 47C19 47 15 45.5 11 45C7 44.5 3.5 45.2 0 46V44Z" fill="#B18F54"/>
<path opacity="0.8" d="M3 40.8C8 39.5 13 39.2 18 40.3C23 41.4 28 41.2 33 39.8" fill="#D8B06A"/>
</svg>
