<svg width="13" height="13" viewBox="0 0 13 13" fill="none" xmlns="http://www.w3.org/2000/svg">
<g clip-path="url(#clip0_2093_7)">
<path d="M6.5 8C7.879 8 9 6.879 9 5.5C9 4.121 7.879 3 6.5 3C5.8372 3.00079 5.20178 3.26444 4.73311 3.73311C4.26444 4.20178 4.00079 4.8372 4 5.5C4 6.879 5.121 8 6.5 8ZM6.5 4.25C6.83152 4.25 7.14946 4.3817 7.38388 4.61612C7.6183 4.85054 7.75 5.16848 7.75 5.5C7.75 5.83152 7.6183 6.14946 7.38388 6.38388C7.14946 6.6183 6.83152 6.75 6.5 6.75C6.16848 6.75 5.85054 6.6183 5.61612 6.38388C5.3817 6.14946 5.25 5.83152 5.25 5.5C5.25 5.16848 5.3817 4.85054 5.61612 4.61612C5.85054 4.3817 6.16848 4.25 6.5 4.25Z" fill="#FAE3A8"/>
<path d="M6.10106 12.88C6.21901 12.9593 6.35792 13.0017 6.50006 13.0017C6.6422 13.0017 6.78111 12.9593 6.89906 12.88C7.10806 12.74 12.0191 9.386 11.9991 5.2C12.0001 2.333 9.53406 0 6.50006 0C3.46706 0 1.00006 2.333 1.00006 5.197C0.980061 9.387 5.89206 12.74 6.10106 12.88ZM6.50006 1.3C8.77506 1.3 10.6251 3.05 10.6251 5.203C10.6391 8.088 7.60806 10.678 6.50006 11.528C5.39206 10.678 2.36006 8.087 2.37506 5.2C2.37506 3.05 4.22506 1.3 6.50006 1.3Z" fill="#FAE3A8"/>
</g>
<defs>
<clipPath id="clip0_2093_7">
<rect width="13" height="13" fill="white"/>
</clipPath>
</defs>
</svg>
