<svg width="14" height="14" viewBox="0 0 14 14" fill="none" xmlns="http://www.w3.org/2000/svg">
<path d="M6.99965 11.2398L3.60648 13.2909C3.45658 13.3866 3.29986 13.4276 3.13634 13.4139C2.97281 13.4002 2.82972 13.3456 2.70708 13.2498C2.58443 13.1541 2.48904 13.0346 2.42091 12.8913C2.35277 12.748 2.33915 12.5872 2.38003 12.4089L3.27942 8.5324L0.274623 5.92756C0.138351 5.8045 0.0533171 5.6642 0.0195216 5.50668C-0.0142739 5.34916 -0.00418974 5.19547 0.049774 5.0456C0.103738 4.89574 0.185501 4.77268 0.295064 4.67641C0.404627 4.58015 0.554526 4.51862 0.744762 4.49182L4.71028 4.14314L6.24334 0.492254C6.31148 0.328169 6.41722 0.205106 6.56058 0.123063C6.70394 0.041021 6.8503 0 6.99965 0C7.14901 0 7.29536 0.041021 7.43872 0.123063C7.58208 0.205106 7.68783 0.328169 7.75596 0.492254L9.28902 4.14314L13.2545 4.49182C13.4453 4.51917 13.5952 4.5807 13.7042 4.67641C13.8133 4.77213 13.895 4.89519 13.9495 5.0456C14.004 5.19601 14.0144 5.34998 13.9806 5.5075C13.9468 5.66502 13.8615 5.80504 13.7247 5.92756L10.7199 8.5324L11.6193 12.4089C11.6602 12.5867 11.6465 12.7475 11.5784 12.8913C11.5103 13.0352 11.4149 13.1547 11.2922 13.2498C11.1696 13.345 11.0265 13.3997 10.863 13.4139C10.6994 13.4281 10.5427 13.3871 10.3928 13.2909L6.99965 11.2398Z" fill="#03ABD0"/>
</svg>
