<svg width="22" height="18" viewBox="0 0 22 18" fill="none" xmlns="http://www.w3.org/2000/svg">
<path d="M1.34988 7.83877C1.34988 7.83877 11.0789 3.88877 14.4499 2.49877C15.7469 1.94177 20.1299 0.15777 20.1299 0.15777C20.1299 0.15777 22.1539 -0.61823 21.9899 1.27177C21.9339 2.05577 21.4849 4.77677 21.0359 7.72577C20.3579 11.9008 19.6239 16.4648 19.6239 16.4648C19.6239 16.4648 19.5179 17.7488 18.5539 17.9668C17.5999 18.1928 16.0239 17.1918 15.7469 16.9648C15.5179 16.8038 11.5269 14.2998 10.0669 13.0718C9.67489 12.7418 9.21688 12.0708 10.1239 11.2958C12.1479 9.45377 14.5639 7.17577 16.0239 5.72177C16.7019 5.05977 17.3789 3.50177 14.5639 5.39177C11.9378 7.18277 9.29296 8.9462 6.62988 10.6818C6.62988 10.6818 5.73288 11.2388 4.04288 10.7378C2.36188 10.2378 0.394885 9.56777 0.394885 9.56777C0.394885 9.56777 -0.960115 8.73477 1.34988 7.83777V7.83877Z" fill="#FAE3A8"/>
</svg>
